<svg width="57" height="63" viewBox="0 0 57 63" fill="none" xmlns="http://www.w3.org/2000/svg">
<path fill-rule="evenodd" clip-rule="evenodd" d="M0 46.5455H16.5C20.3928 46.5455 23.8335 45.9136 26.8221 44.6498V62.3268H56.6176V54.2131H36.6631V35.4557C38.4028 32.0266 39.2727 27.9504 39.2727 23.2273C39.2727 18.3939 38.3561 14.2424 36.5227 10.7727C34.7045 7.30303 32.1061 4.64394 28.7273 2.79546C25.3485 0.931819 21.3182 0 16.6364 0H0V46.5455ZM28.3403 15.7813C28.2148 15.4395 28.0786 15.1109 27.9318 14.7955C26.9318 12.6136 25.4394 11.0076 23.4545 9.97727C21.4697 8.94697 19.0227 8.43182 16.1136 8.43182H9.84091V38.1136H16.0909C19 38.1136 21.447 37.5985 23.4318 36.5682C24.7938 35.8562 25.9239 34.8808 26.8221 33.6419V15.7813H28.3403Z" fill="black"/>
</svg>
